<?xml version="1.0" standalone="no"?>
<!DOCTYPE svg PUBLIC "-//W3C//DTD SVG 20010904//EN"
 "http://www.w3.org/TR/2001/REC-SVG-20010904/DTD/svg10.dtd">
<svg version="1.0" xmlns="http://www.w3.org/2000/svg"
 width="512.000000pt" height="512.000000pt" viewBox="0 0 512.000000 512.000000"
 preserveAspectRatio="xMidYMid meet">
<metadata>
Created by potrace 1.11, written by Peter Selinger 2001-2013
</metadata>
<g transform="translate(0.000000,512.000000) scale(0.100000,-0.100000)"
fill="#000000" stroke="none">
<path d="M2359 5065 c-2 -2 -33 -6 -69 -9 -36 -4 -78 -9 -95 -11 -176 -31
-168 -29 -299 -64 -318 -85 -644 -252 -901 -461 -207 -167 -372 -348 -515
-560 -33 -49 -60 -91 -60 -94 0 -2 -17 -33 -38 -67 -44 -73 -127 -243 -138
-284 -1 -5 -16 -44 -32 -85 -62 -159 -120 -408 -140 -605 -14 -143 -7 -503 13
-606 3 -13 7 -41 10 -64 4 -22 13 -69 21 -105 9 -36 17 -73 19 -82 8 -37 48
-175 62 -213 193 -522 478 -896 954 -1251 263 -195 611 -353 904 -410 22 -5
42 -9 45 -9 3 -1 28 -5 55 -10 28 -4 59 -9 70 -11 111 -21 444 -24 590 -5 133
17 274 43 325 61 14 5 59 18 100 30 41 12 84 25 95 30 11 5 56 23 100 41 106
43 261 124 393 206 119 74 117 73 257 180 289 221 539 524 697 848 27 55 54
108 59 118 39 73 111 296 148 461 29 127 33 154 51 316 9 82 5 438 -5 510 -26
183 -65 368 -95 445 -4 11 -14 40 -21 65 -64 223 -272 601 -434 787 -342 393
-708 644 -1150 788 -99 32 -294 81 -356 90 -40 5 -122 17 -149 22 -32 5 -466
13 -471 8z"/>
</g>
</svg>
