<?xml version="1.0" standalone="no"?>
<!DOCTYPE svg PUBLIC "-//W3C//DTD SVG 20010904//EN"
 "http://www.w3.org/TR/2001/REC-SVG-20010904/DTD/svg10.dtd">
<svg version="1.0" xmlns="http://www.w3.org/2000/svg"
 width="512.000000pt" height="512.000000pt" viewBox="0 0 512.000000 512.000000"
 preserveAspectRatio="xMidYMid meet">
<metadata>
Created by potrace 1.11, written by Peter Selinger 2001-2013
</metadata>
<g transform="translate(0.000000,512.000000) scale(0.100000,-0.100000)"
fill="#000000" stroke="none">
<path d="M352 5029 c-70 -27 -144 -102 -171 -171 -20 -53 -20 -67 -20 -2275
-1 -2200 -1 -2223 19 -2276 27 -73 79 -130 148 -164 l57 -28 2195 -2 c2185 -2
2195 -2 2248 18 72 28 137 92 167 165 l25 59 -3 2235 -2 2235 -28 57 c-32 64
-80 111 -146 142 l-46 21 -2195 2 c-2186 2 -2195 2 -2248 -18z"/>
</g>
</svg>
