<svg xmlns="http://www.w3.org/2000/svg" width="736" height="440" viewBox="0 0 736 440">
  <g id="Layer_2" data-name="Layer 2">
    <g id="Layer_2-2" data-name="Layer 2">
      <rect width="736" height="440" fill="none"/>
    </g>
    <g id="Layer_1-2" data-name="Layer 1">
      <g>
        <path d="M126.8,162.9a5.2,5.2,0,0,1,2.1.4L179,183.1a2.8,2.8,0,0,1,1.8,2.7v33.4a83.1,83.1,0,0,1-1.8,11.7c-7.5,34.5-34.1,56.2-49.3,66.6h-5.8c-15.2-10.4-41.8-32.1-49.3-66.6a83.1,83.1,0,0,1-1.8-11.7V185.8a2.8,2.8,0,0,1,1.8-2.7l50.1-19.8a5.2,5.2,0,0,1,2.1-.4m0-3a8.7,8.7,0,0,0-3.2.6L73.5,180.3a5.9,5.9,0,0,0-3.7,5.5v33.6h0c.4,4,1,8.1,1.8,12.1,7.3,33,31.5,55.4,50.6,68.3a3.1,3.1,0,0,0,2.1.7h5a3.1,3.1,0,0,0,2.1-.7c19.1-12.9,43.3-35.3,50.6-68.3.8-4,1.4-8.1,1.8-12.1h0V185.8a5.9,5.9,0,0,0-3.7-5.5L130,160.5a8.7,8.7,0,0,0-3.2-.6Z" fill="#97b3c6"/>
        <path d="M126.6,289.5c-16.8-11.8-37.9-31.7-44.2-60.3a88.1,88.1,0,0,1-1.5-10.3V189.3l45.9-18.1,45.9,18.1v29.6a88.1,88.1,0,0,1-1.5,10.3c-6.3,28.6-27.4,48.5-44.2,60.3Z" fill="#97b3c6"/>
        <g opacity="0.4">
          <path d="M127.2,289.7C144,277.9,165,258,171.3,229.4c.7-3.4,1.2-6.8,1.6-10.3V189.5l-46-18.1V289.7Z" fill="#fff"/>
          <path d="M127.5,290.7h-1.6V169.9l48,18.9v30.3c-.4,3.6-.9,7.1-1.6,10.5-6.4,29-27.8,49.1-44.6,60.9Zm.4-117.8v115c16.3-11.7,36.3-31.1,42.4-58.7a90,90,0,0,0,1.6-10.2V190.2Z" fill="#fff"/>
        </g>
      </g>
      <g opacity="0.4">
        <path d="M705.6,284.4H539.8V88H705.6a4.2,4.2,0,0,1,4.3,4.2V280.1A4.3,4.3,0,0,1,705.6,284.4Zm-162.8-3H705.6a1.3,1.3,0,0,0,1.3-1.3V92.2a1.2,1.2,0,0,0-1.3-1.2H542.8Z" fill="#6497ad"/>
      </g>
      <path d="M541.3,129.9H682.4a1.6,1.6,0,0,1,1.6,1.6v17.4a1.6,1.6,0,0,1-1.6,1.6H541.3a0,0,0,0,1,0,0V129.9A0,0,0,0,1,541.3,129.9Z" fill="#e0e4e9"/>
      <path d="M540.6,160.4h85.7a1.6,1.6,0,0,1,1.6,1.6v17.4a1.6,1.6,0,0,1-1.6,1.6H540.6a0,0,0,0,1,0,0V160.4A0,0,0,0,1,540.6,160.4Z" fill="#e0e4e9"/>
      <path d="M541.6,198.5h141a1.7,1.7,0,0,1,1.7,1.7v17.1a1.7,1.7,0,0,1-1.7,1.7h-141a0,0,0,0,1,0,0V198.5A0,0,0,0,1,541.6,198.5Z" fill="#e0e4e9"/>
      <path d="M541,229.1h85.5a1.8,1.8,0,0,1,1.8,1.8v17a1.8,1.8,0,0,1-1.8,1.8H541a0,0,0,0,1,0,0V229.1A0,0,0,0,1,541,229.1Z" fill="#e0e4e9"/>
      <polygon points="168.6 236 166.1 244.1 163.7 255.2 162.4 267.5 162.4 269.5 192.6 260.4 195.6 234.6 168.6 236" fill="#fff"/>
      <path d="M243.9,421.7H199.8a23.9,23.9,0,0,1-9.9-2.2l-2.7-1.3a14.4,14.4,0,0,1-8.1-12.8v-3.6a6.4,6.4,0,0,1,6.2-6.4l21.5-.5a21.8,21.8,0,0,1,5,.5l11,2.6h7a.8.8,0,0,1,.8.7.9.9,0,0,1-.8.8h-7.2l-11.2-2.6a14.4,14.4,0,0,0-4.6-.5l-21.4.5a4.9,4.9,0,0,0-4.8,4.9v3.6a12.8,12.8,0,0,0,7.2,11.4l2.7,1.3a21.4,21.4,0,0,0,9.3,2.1h44.1a.8.8,0,0,1,.8.8A.8.8,0,0,1,243.9,421.7Z" fill="#6497ad"/>
      <path d="M363.8,406.9H330.2a14,14,0,0,1-4.1-.5l-22.7-6.2a.8.8,0,0,1-.6-.9.8.8,0,0,1,1-.5l22.7,6.1a11.8,11.8,0,0,0,3.7.5h33.6a8.1,8.1,0,0,0,6.8-3.6l4.1-6.1a9.1,9.1,0,0,0,1.3-6.6,3,3,0,0,0-2.6-2.5L359,385H340.5a.8.8,0,0,1-.7-.8.7.7,0,0,1,.7-.7h18.6l14.4,1.6a4.6,4.6,0,0,1,4,3.7,10.5,10.5,0,0,1-1.6,7.7l-4.1,6.2A9.8,9.8,0,0,1,363.8,406.9Z" fill="#6497ad"/>
      <g>
        <path d="M235.4,395.9l113.9-74.7a19.7,19.7,0,0,1,28.4,7.8h0A26.7,26.7,0,0,1,367,364.1l-90.5,51.6a38.8,38.8,0,0,1-16.9,4.9l-15.2.9a1.3,1.3,0,0,1-1.2-.8L234.7,398A1.7,1.7,0,0,1,235.4,395.9Z" fill="#6497ad"/>
        <path d="M244.3,421.8a1.4,1.4,0,0,1-1.4-1l-8.5-22.7a2.2,2.2,0,0,1,.8-2.6l113.9-74.6a19.9,19.9,0,0,1,28.9,7.9,27.1,27.1,0,0,1-10.9,35.6L276.7,416a38.1,38.1,0,0,1-17.1,5l-15.2.8ZM360.1,318.4a19.1,19.1,0,0,0-10.6,3.2L235.6,396.2a1.3,1.3,0,0,0-.5,1.7l8.5,22.7a.8.8,0,0,0,.8.5l15.2-.8a38,38,0,0,0,16.7-4.9l90.5-51.6a26.5,26.5,0,0,0,10.6-34.7,19.3,19.3,0,0,0-12.3-10A16.8,16.8,0,0,0,360.1,318.4Z" fill="#6497ad"/>
      </g>
      <g>
        <path d="M320.8,316.8,213.7,330.2l-18.9-2.4c-4.6,2.7-10.7,3.5-14.9.8h0a25.9,25.9,0,0,1-4.2-3.2h-.8a29.3,29.3,0,0,0-31.2,19.2h0a23.2,23.2,0,0,0,15.4,29.9L223.4,393a3.8,3.8,0,0,0,3.1-.5l93.3-60.9Z" fill="#598a9b"/>
        <path d="M224.4,393.5l-1.1-.2L159,374.8a23.5,23.5,0,0,1-15.6-30.4,29.7,29.7,0,0,1,31.5-19.5H176a21.5,21.5,0,0,0,4.1,3.2c4.4,2.7,10.4,1.6,14.5-.8h0l19.2,2.3,107.4-13.4-1,15.5-93.5,60.9A3.9,3.9,0,0,1,224.4,393.5Zm-53.1-68.1a29,29,0,0,0-27.2,19.2A22.7,22.7,0,0,0,159.2,374l64.3,18.6a3.5,3.5,0,0,0,2.8-.4l93.1-60.8,1-14.1L213.8,330.6l-18.9-2.4c-4.3,2.4-10.6,3.6-15.2.7a21.5,21.5,0,0,1-4.1-3.2h-.8Z" fill="#598a9b"/>
      </g>
      <g>
        <path d="M167.4,239.5A107.8,107.8,0,0,1,178,215.8a89.2,89.2,0,0,1,24.8-27c13.9-9.9,30.5-15,47-16.4l3.7,15.9c2.5,11.8,12.4,17.9,16.4,18.8l2.4.5L271,222.7v.6l-11.2,1.6a9.4,9.4,0,0,0-6.8,4.5l-9.2,14.7a12.4,12.4,0,0,1-3.5,3.7l-30.1,21.7-42.8-30" fill="#11d3cd"/>
        <path d="M210.1,270l-.2-.2-42.8-30,.2-.3H167a111.5,111.5,0,0,1,10.7-23.8,89.9,89.9,0,0,1,24.8-27.1c13.1-9.2,29.4-14.9,47.3-16.4h.3v.4l3.6,15.9c2.6,11.7,12.7,17.7,16.1,18.5a14,14,0,0,0,2.5.4h.3l-1.4,16.4-11.5,1.7a9.3,9.3,0,0,0-6.6,4.3L244,244.3a14.5,14.5,0,0,1-3.6,3.8Zm-42.3-30.6,42.3,29.7L240,247.5a14.6,14.6,0,0,0,3.4-3.6l9.2-14.7a10,10,0,0,1,7.1-4.7l10.9-1.5,1.3-15.1a9.4,9.4,0,0,1-2.1-.4c-4.2-1-14.1-7.2-16.7-19.1s-3.3-14.4-3.6-15.6c-17.5,1.6-33.6,7.2-46.5,16.3A90.1,90.1,0,0,0,178.3,216,109.9,109.9,0,0,0,167.8,239.4Z" fill="#11d3cd"/>
      </g>
      <g>
        <path d="M358.1,222.7c-10.2-9.3-21.1-19.3-31.4-28.5-7.2-5.7-17.1-11.2-28.5-15.4-2.2-.8-4.5-1.6-6.8-2.2-.1-.1-.2,0-.2.1.3,6.5-.3,16.9-4.5,23.8-.1.2,0,.4.1.4l15.7,1.4a3.9,3.9,0,0,1,3.5,4.2l-4.5,51.4a3.9,3.9,0,0,1-4.3,3.5l-25.6-2.3a3.9,3.9,0,0,1-3.5-4.2,12.4,12.4,0,0,0,.2-1.8l-3,1a9.9,9.9,0,0,0-5,3l-48.8,53.5c.4,6.2.3,4.2,1.1,10.9.3,2.9.7,5.7,1.1,8.5a.2.2,0,0,0,.2.2l106.6-13.3c.2-.1.4-.2.4-.4.6-9.2.3-5.4,1-14.9,1.3-17.7,2-27.9,3.2-45.6,0-.1.1-.2.2-.1l8.2,4.5a.1.1,0,0,0,.2,0l24.4-37.7" fill="#11d3cd"/>
        <path d="M213.9,330.6a.6.6,0,0,1-.6-.5c-.4-2.9-.7-5.7-1.1-8.6s-.4-3.4-.5-4.3a48.2,48.2,0,0,1-.5-6.6v-.2h.2L260,256.8a10.5,10.5,0,0,1,5.2-3l3-1.1h.4c.1.1.2.3-.1,2.2a3.3,3.3,0,0,0,.8,2.5,3.1,3.1,0,0,0,2.4,1.2l25.6,2.3a3.5,3.5,0,0,0,3.8-3.2l4.6-51.3a3.6,3.6,0,0,0-3.2-3.9l-15.7-1.3a1,1,0,0,1-.5-.4.6.6,0,0,1,0-.6c4.8-7.8,4.7-20,4.5-23.6a.8.8,0,0,1,.2-.4c.2-.1.4-.2.5-.1l6.8,2.2c11.4,4.3,21.3,9.6,28.6,15.6,10.5,9.3,21.6,19.5,31.4,28.4l.3.2-24.6,38a.5.5,0,0,1-.7.1l-7.9-4.3c-1.2,17.5-1.9,27.6-3.1,45.3l-.5,6.2c-.1,2.2-.1,2.7-.6,8.6a.7.7,0,0,1-.7.7L214,330.6Zm-2-19.9c.2,4.1.3,4.5.5,6.4s.3,2.2.6,4.3.6,5.6,1,8.4l106.5-13.3c.4-6,.4-6.5.6-8.7l.4-6.2c1.3-17.7,2-27.9,3.2-45.6,0-.2.1-.4.3-.4h.4l8.1,4.4,24.1-37.3c-9.7-8.9-20.7-18.9-31.2-28.2-7.2-5.8-17-11.2-28.4-15.4-2.1-.7-4.2-1.5-6.4-2.1.2,4.8,0,15.9-4.5,23.5l15.4,1.4a4,4,0,0,1,2.9,1.5,4,4,0,0,1,1,3.1l-4.6,51.4a4.3,4.3,0,0,1-4.6,3.9l-25.6-2.3a4.6,4.6,0,0,1-2.9-1.5,4.5,4.5,0,0,1-1-3.1,8.3,8.3,0,0,0,.2-1.3l-2.5.9a9.7,9.7,0,0,0-4.8,2.8Z" fill="#11d3cd"/>
      </g>
      <path d="M280.7,165.2a46.4,46.4,0,0,1-9.6-1.3l-1.9-.4a.8.8,0,1,1,.3-1.5l2,.4c4.2,1,10.7,2.4,17.1-.1,2.1-.9,5.1-2.3,6.5-5.1a4.9,4.9,0,0,0,.2-2.3l-3.1-18.5c-1-6.1-2-12.1-3-18.6a.6.6,0,0,1,.6-.8.8.8,0,0,1,.9.6c1,6.5,2,12.5,3,18.5s2,12.1,3.1,18.6a5.5,5.5,0,0,1-.4,3.1c-1.6,3.3-4.9,4.9-7.2,5.9A23.9,23.9,0,0,1,280.7,165.2Z" fill="#464e56"/>
      <path d="M256.8,162.1h-.9l-12.2-2,.2-1.5,12.2,2.1c1.7.2,2.7-.4,3.2-1.8l3.3-9.9a1.3,1.3,0,0,0-.1-.6c-3.6-3.3-7.7-8-7.1-11a5.5,5.5,0,0,1,2.3-3.8c2.9-2,7.4-1,10.1-.4h.9c.2.1.4,0,.4-.2s1.4-3.3,2.2-5.4,1.7-4.2,2.2-5.5a2.2,2.2,0,0,1,1.7-1.2c17.4-2.7,18.5-4.1,19.5-8.7s-2.5-6.9-5.5-8.9a42.7,42.7,0,0,0-11.9-5.5c-7.5-2.1-23.8,1-24,1.1l-.2-1.5c.1,0,16.8-3.3,24.6-1,5.8,1.6,20.4,7.8,18.5,16.2-1.3,5.6-3.4,7.1-20.8,9.8a.5.5,0,0,0-.5.3c-.5,1.3-1.3,3.4-2.2,5.5l-2.2,5.4a1.8,1.8,0,0,1-2.1,1.1l-.9-.2c-2.3-.5-6.6-1.4-8.9.2a4.1,4.1,0,0,0-1.7,2.8c-.4,1.9,2.1,5.5,6.6,9.8a1.9,1.9,0,0,1,.5,2.1l-3.2,9.9A4,4,0,0,1,256.8,162.1Z" fill="#464e56"/>
      <path d="M272.2,208.3a12.4,12.4,0,0,1-2.5-.4c-4.2-1-14.4-7.3-17-19.4l-8.1-35.3,1.5-.3,8.1,35.3c2.5,11.6,12.5,17.4,15.8,18.2l2.4.4Z" fill="#464e56"/>
      <path d="M287,200.5h-.3a.7.7,0,0,1-.2-.7c4.9-7.6,4.4-19.3,4.2-23.2a.5.5,0,0,1,.5-.5.5.5,0,0,1,.5.5c.3,6.8.2,16.7-4.3,23.7A.5.5,0,0,1,287,200.5Z" fill="#464e56"/>
      <path d="M389.2,251a2.3,2.3,0,0,1-1.6-.6c-10.2-9-19.1-17.1-29.6-26.8a.7.7,0,0,1-.1-1,.8.8,0,0,1,1.1-.1c10.5,9.7,19.4,17.8,29.6,26.8a1,1,0,0,0,1.2.1l54-38.9a.8.8,0,0,1,1.1.1.9.9,0,0,1-.2,1.1l-54.1,38.9A2.3,2.3,0,0,1,389.2,251Z" fill="#464e56"/>
      <path d="M186.3,331a12.3,12.3,0,0,1-6.8-1.8,25.6,25.6,0,0,1-10.7-13,121.1,121.1,0,0,1-2.2-76.6.7.7,0,0,1,.9-.5.9.9,0,0,1,.5,1,119.4,119.4,0,0,0,2.2,75.6A24.7,24.7,0,0,0,180.3,328c5.4,3.3,13.6.8,17.7-3.7l61.7-67.7a10.7,10.7,0,0,1,5.4-3.2l24.7-8.2a6.2,6.2,0,0,0,3.8-3.8l2.6-8a8.7,8.7,0,0,0-2.1-8.8l-2.2-2.3a4.4,4.4,0,0,0-3.6-1.2l-28.4,4.5a8.9,8.9,0,0,0-6.4,4.2l-9.2,14.7a13.8,13.8,0,0,1-3.7,3.9L185,288.5a.7.7,0,0,1-1-.2.7.7,0,0,1,.1-1l55.6-40.1a10,10,0,0,0,3.3-3.5l9.3-14.7a10,10,0,0,1,7.3-4.8l28.5-4.6a5.7,5.7,0,0,1,4.8,1.7l2.3,2.3a10.1,10.1,0,0,1,2.4,10.2l-2.6,8a7.9,7.9,0,0,1-4.7,4.9l-24.8,8.2a9,9,0,0,0-4.6,2.7l-61.8,67.7A17.7,17.7,0,0,1,186.3,331Z" fill="#464e56"/>
      <path d="M383.2,284.9a26.5,26.5,0,0,1-12.8-3.3l-58.9-32.2a.8.8,0,0,1-.3-1,.7.7,0,0,1,1-.3l58.9,32.2a25.2,25.2,0,0,0,30.2-4.6l46.3-47.8a3.5,3.5,0,0,1,3.4-1.1c2.2.5,7.5,1.1,18.9-.6l22.3-5.9,1.2-.5c2.9-2,3.8-3.4,3.7-3.9s-.4-.4-1-.6c-3-.7-14.3-.4-31,.7-1.7.2-3-.4-3.3-1.3s-.1-1.3,1.2-2l6.3-3.3c.2,0,.7-.3.6-.7s-1.1-1.3-3.1-1.2c-5.8.4-17.1,1.3-18.9,1.6s-2.8,2.2-3.1,2.5a.7.7,0,0,1-1,0,.7.7,0,0,1-.1-1,19.9,19.9,0,0,1,3.8-2.9c2-.5,18.5-1.7,19.2-1.7,3-.1,4.4,1.2,4.6,2.3a2.1,2.1,0,0,1-1.4,2.5l-6.1,3.2-.5.3a3.2,3.2,0,0,0,1.7.2c9.9-.7,27.1-1.6,31.5-.6a2.5,2.5,0,0,1,2.1,1.7c.3,1.4-1.2,3.2-4.4,5.4a4.8,4.8,0,0,1-1.6.8l-22.4,5.8c-11.7,1.9-17.3,1.2-19.5.7a2.1,2.1,0,0,0-2.1.6l-46.2,47.9A26.6,26.6,0,0,1,383.2,284.9Z" fill="#464e56"/>
      <path d="M525.3,334.7H388.8a1.5,1.5,0,0,1,0-3H525.3a14.5,14.5,0,0,0,14.5-14.4V44.4A14.4,14.4,0,0,0,525.3,30H131.1a14.3,14.3,0,0,0-14.4,14.4V93.5a1.5,1.5,0,0,1-1.5,1.5,1.4,1.4,0,0,1-1.5-1.5V44.4A17.4,17.4,0,0,1,131.1,27H525.3a17.5,17.5,0,0,1,17.5,17.4V317.3A17.5,17.5,0,0,1,525.3,334.7Z" fill="#97b3c6"/>
      <g opacity="0.4">
        <path d="M523.8,309.8H331.2a.8.8,0,0,1-.8-.7.8.8,0,0,1,.8-.8H522.3V50.7H134.1V93.5a.8.8,0,0,1-.7.8.8.8,0,0,1-.8-.8V49.2H523.8Z" fill="#6497ad"/>
      </g>
      <path d="M506.6,76.7H146.2a.7.7,0,0,1-.7-.7.8.8,0,0,1,.7-.8H506.6a.8.8,0,0,1,.8.8A.7.7,0,0,1,506.6,76.7Z" fill="#97b3c6"/>
      <path d="M173.6,414.5H80.3a6.7,6.7,0,0,1-6-3.7,6.7,6.7,0,0,1,.5-7.1l26.8-37.6a1.6,1.6,0,0,1,2.1-.4,1.6,1.6,0,0,1,.4,2.1L77.2,405.4a4.1,4.1,0,0,0-.3,4,3.9,3.9,0,0,0,3.4,2.1h93.3a1.5,1.5,0,1,1,0,3Z" fill="#97b3c6"/>
      <path d="M576.1,414.5H294.4a1.5,1.5,0,0,1,0-3H576.1a3.8,3.8,0,0,0,3.4-2.1,3.6,3.6,0,0,0-.3-4L539,349.1a3.8,3.8,0,0,0-3.1-1.6H388.5a1.5,1.5,0,0,1,0-3H535.9a6.8,6.8,0,0,1,5.5,2.9l40.3,56.3a6.7,6.7,0,0,1,.5,7.1A6.8,6.8,0,0,1,576.1,414.5Z" fill="#97b3c6"/>
      <path d="M297.6,262.9h-.5l-25.6-2.3a5.6,5.6,0,0,1-3.7-1.9,5.5,5.5,0,0,1-1.2-3.9l.2-1.9,3,.3-.2,1.8a2.2,2.2,0,0,0,2.2,2.6l25.6,2.3a2.5,2.5,0,0,0,2.6-2.2l4.5-51.3a2.3,2.3,0,0,0-.5-1.8,2.1,2.1,0,0,0-1.6-.8l-25.6-2.3a2.4,2.4,0,0,0-2.6,2.1l-1.8,19.8-3-.3,1.8-19.7a5.4,5.4,0,0,1,5.8-4.9l25.6,2.3a5.2,5.2,0,0,1,3.7,1.9,5.1,5.1,0,0,1,1.2,3.9L302.9,258A5.3,5.3,0,0,1,297.6,262.9Z" fill="#12a9ff"/>
      <path d="M139.9,368.5H44.2a17.2,17.2,0,0,1-17.1-17.2V109.2A17.2,17.2,0,0,1,44.2,92H209.4a17.1,17.1,0,0,1,17.1,17.2v60.5a1.5,1.5,0,0,1-1.5,1.5,1.5,1.5,0,0,1-1.5-1.5V109.2A14.2,14.2,0,0,0,209.4,95H44.2a14.2,14.2,0,0,0-14.1,14.2V351.3a14.2,14.2,0,0,0,14.1,14.2h95.7a1.5,1.5,0,0,1,1.5,1.5A1.5,1.5,0,0,1,139.9,368.5Z" fill="#97b3c6"/>
      <g opacity="0.4">
        <path d="M138.9,334H45.8a3.7,3.7,0,0,1-3.6-3.7V117.8a3.6,3.6,0,0,1,3.6-3.6h162a3.6,3.6,0,0,1,3.6,3.6v56.9a.8.8,0,0,1-.7.8.9.9,0,0,1-.8-.8V117.8a2.1,2.1,0,0,0-2.1-2.1H45.8a2.1,2.1,0,0,0-2.1,2.1V330.3a2.1,2.1,0,0,0,2.1,2.2h93.1a.8.8,0,0,1,.8.7A.9.9,0,0,1,138.9,334Z" fill="#6497ad"/>
      </g>
      <circle cx="59.3" cy="128.4" r="5.8" fill="#97b3c6"/>
      <circle cx="76.4" cy="128.4" r="5.8" fill="#97b3c6"/>
      <circle cx="93.5" cy="128.4" r="5.8" fill="#97b3c6"/>
      <path d="M197.2,142.1H55.4a.8.8,0,0,1-.7-.8.7.7,0,0,1,.7-.7H197.2a.7.7,0,0,1,.7.7A.8.8,0,0,1,197.2,142.1Z" fill="#97b3c6"/>
      <circle cx="149.8" cy="63.1" r="5.8" fill="#97b3c6"/>
      <circle cx="166.9" cy="63.1" r="5.8" fill="#97b3c6"/>
      <circle cx="184" cy="63.1" r="5.8" fill="#97b3c6"/>
      <path d="M243.8,159.3s-8.6-3.1-11.7-21,5.5-37.9,22.2-42.3c24.3-6.3,42.9,8.9,41.2,16.4-1.2,5-2.5,6.5-20.2,9.2a1.5,1.5,0,0,0-1.1.8c-1,2.5-3.3,8.4-4.4,10.9a1.1,1.1,0,0,1-1.3.7c-2.8-.6-11.2-3-12.4,3.4-.5,3.1,5.1,8.7,6.9,10.4a1.1,1.1,0,0,1,.3,1.3l-3.3,10c-.5,1.5-1.7,2.5-4,2.2l-12.2-2" fill="#464e56"/>
      <path d="M279.4,216.4h0a3.1,3.1,0,0,1-2.8-3.4l.3-4.3a3,3,0,0,1,3.2-2.9h0a3,3,0,0,1,2.8,3.3l-.3,4.3A3.1,3.1,0,0,1,279.4,216.4Z" fill="#12a9ff"/>
      <g>
        <g>
          <path d="M464.7,182.2a62.7,62.7,0,1,1,62.7-62.7A62.7,62.7,0,0,1,464.7,182.2Z" fill="#12a9ff"/>
          <path d="M464.7,58.8A60.7,60.7,0,1,1,404,119.5a60.7,60.7,0,0,1,60.7-60.7m0-4a64.7,64.7,0,1,0,64.7,64.7,64.7,64.7,0,0,0-64.7-64.7Z" fill="#fff"/>
        </g>
        <circle cx="464.7" cy="105.9" r="19.9" fill="#fff"/>
        <path d="M464.6,167.7a48.2,48.2,0,0,0,39.5-20.6.9.9,0,0,0-.1-1.2h0a39.9,39.9,0,0,0-21.6-11.4h0a100.2,100.2,0,0,0-35.4,0h0a40.6,40.6,0,0,0-21.7,11.4h0a.9.9,0,0,0-.1,1.2,48.3,48.3,0,0,0,39.5,20.6" fill="#fff"/>
      </g>
    </g>
  </g>
</svg>
